<?xml version="1.0" encoding="iso-8859-1"?>
<svg fill="#fff" height="24px" width="24px" version="1.1" id="Capa_1" xmlns="http://www.w3.org/2000/svg" xmlns:xlink="http://www.w3.org/1999/xlink" 
	 viewBox="0 0 84.596 84.596" xml:space="preserve">
<g>
	<path d="M55.285,0H19.767C13.49,0,8.384,5.107,8.384,11.384v61.828c0,6.277,5.107,11.384,11.384,11.384h45.062
		c6.276,0,11.383-5.106,11.383-11.384v-49.82L55.285,0z M56.942,10.853l9.561,10.686h-9.561V10.853z M64.829,78.596H19.767
		c-2.969,0-5.384-2.415-5.384-5.384V11.384C14.384,8.415,16.799,6,19.767,6h31.175v21.538h19.27v45.674
		C70.213,76.181,67.798,78.596,64.829,78.596z"/>
</g>
</svg>